<?xml version="1.0" ?><!DOCTYPE svg  PUBLIC '-//W3C//DTD SVG 1.1//EN'  'http://www.w3.org/Graphics/SVG/1.1/DTD/svg11.dtd'><svg enable-background="new 0 0 91 91" height="91px" id="Layer_1" version="1.1" viewBox="0 0 91 91" width="91px" xml:space="preserve" xmlns="http://www.w3.org/2000/svg" xmlns:xlink="http://www.w3.org/1999/xlink"><g><g><g><g><path d="M48.626,69.17c-3.926,3.592-9.153,5.782-14.896,5.782c-12.193,0-31.326-9.878-31.326-22.068      c0-12.19,19.132-22.072,31.326-22.072c3.81,0,7.392,0.964,10.523,2.663" fill="#E4E4E6"/><path d="M33.729,77.209c-13.209,0-33.582-10.445-33.582-24.325c0-13.883,20.373-24.331,33.582-24.331      c4.047,0,8.057,1.017,11.601,2.937c1.096,0.593,1.502,1.963,0.907,3.06c-0.595,1.096-1.965,1.502-3.059,0.908      c-2.885-1.563-6.152-2.389-9.449-2.389c-11.213,0-29.068,9.068-29.068,19.815c0,10.744,17.855,19.813,29.068,19.813      c4.964,0,9.715-1.846,13.373-5.192c0.92-0.842,2.349-0.777,3.188,0.142c0.842,0.919,0.779,2.346-0.14,3.188      C45.656,74.946,39.825,77.209,33.729,77.209z" fill="#434B56"/></g><g><path d="M40.115,50.743c0-13.365,10.84-34.352,24.209-34.352s24.209,20.986,24.209,34.352      c0,13.369-10.84,24.211-24.209,24.211S40.115,64.112,40.115,50.743z" fill="#FFFFFF"/><path d="M64.324,77.211c-14.594,0-26.466-11.872-26.466-26.468c0-14.401,11.365-36.611,26.466-36.611      c15.101,0,26.466,22.209,26.466,36.611C90.79,65.339,78.918,77.211,64.324,77.211z M64.324,18.648      c-11.906,0-21.953,19.713-21.953,32.095c0,12.105,9.85,21.955,21.953,21.955c12.105,0,21.953-9.85,21.953-21.955      C86.277,38.361,76.229,18.648,64.324,18.648z" fill="#434B56"/></g><g><path d="M77.738,54.453c0,7.408-6.003,13.418-13.414,13.418c-7.413,0-13.42-6.01-13.42-13.418      c0-7.413,6.007-13.417,13.42-13.417C71.735,41.036,77.738,47.04,77.738,54.453z" fill="#F9BA8F"/><path d="M64.324,70.128c-8.645,0-15.677-7.03-15.677-15.675c0-8.644,7.032-15.676,15.677-15.676      c8.642,0,15.67,7.032,15.67,15.676C79.994,63.098,72.966,70.128,64.324,70.128z M64.324,43.293      c-6.154,0-11.163,5.007-11.163,11.16c0,6.154,5.009,11.162,11.163,11.162c6.151,0,11.156-5.008,11.156-11.162      C75.48,48.3,70.476,43.293,64.324,43.293z" fill="#434B56"/></g></g></g></g></svg>