<?xml version="1.0" ?><!DOCTYPE svg  PUBLIC '-//W3C//DTD SVG 1.1//EN'  'http://www.w3.org/Graphics/SVG/1.1/DTD/svg11.dtd'><svg enable-background="new 0 0 91 91" height="91px" id="Layer_1" version="1.1" viewBox="0 0 91 91" width="91px" xml:space="preserve" xmlns="http://www.w3.org/2000/svg" xmlns:xlink="http://www.w3.org/1999/xlink"><g><g><g><g><path d="M7.542,43.522c0-21.086,17.094-38.18,38.18-38.18c21.082,0,38.176,17.094,38.176,38.18" fill="#FFFFFF"/><path d="M83.897,45.79c-1.252,0-2.268-1.016-2.268-2.268C81.63,23.72,65.521,7.61,45.722,7.61      C25.919,7.61,9.81,23.72,9.81,43.522c0,1.252-1.016,2.268-2.268,2.268c-1.254,0-2.268-1.016-2.268-2.268      c0-22.303,18.145-40.447,40.447-40.447c22.301,0,40.443,18.145,40.443,40.447C86.165,44.774,85.151,45.79,83.897,45.79z" fill="#434B56"/></g><path d="M26.06,36.255c-1.252,0-2.268-1.016-2.268-2.27v-4.16c0-1.252,1.016-2.268,2.268-2.268     c1.254,0,2.268,1.016,2.268,2.268v4.16C28.327,35.239,27.313,36.255,26.06,36.255z" fill="#434B56"/><path d="M35.515,27.753c-0.742,0-1.471-0.365-1.904-1.035l-1.596-2.463c-0.682-1.053-0.381-2.457,0.672-3.137     c1.049-0.68,2.455-0.381,3.135,0.67l1.596,2.463c0.682,1.053,0.381,2.457-0.672,3.137C36.364,27.636,35.938,27.753,35.515,27.753     z" fill="#434B56"/><path d="M40.808,36.253c-0.701,0-1.393-0.324-1.838-0.936l-1.51-2.078c-0.736-1.014-0.512-2.432,0.502-3.168     s2.432-0.512,3.168,0.502l1.51,2.078c0.736,1.014,0.512,2.432-0.502,3.168C41.735,36.112,41.269,36.253,40.808,36.253z" fill="#434B56"/><path d="M52.522,26.521c-0.504,0-1.012-0.168-1.432-0.51l-1.512-1.23c-0.971-0.791-1.117-2.219-0.326-3.191     s2.221-1.117,3.191-0.326l1.512,1.23c0.971,0.791,1.117,2.221,0.326,3.191C53.833,26.235,53.181,26.521,52.522,26.521z" fill="#434B56"/><path d="M61.364,36.2c-1.254,0-2.268-1.016-2.268-2.268V31.96c0-1.252,1.014-2.268,2.268-2.268     c1.252,0,2.268,1.016,2.268,2.268v1.973C63.632,35.185,62.616,36.2,61.364,36.2z" fill="#434B56"/><path d="M59.946,21.513c-0.92,0-1.787-0.566-2.127-1.48l-0.42-1.135c-0.434-1.174,0.164-2.479,1.34-2.914     c1.174-0.436,2.479,0.164,2.914,1.338l0.42,1.135c0.436,1.174-0.164,2.479-1.338,2.914     C60.476,21.466,60.208,21.513,59.946,21.513z" fill="#434B56"/><path d="M70.495,36.253c-0.881,0-1.719-0.518-2.088-1.379c-0.49-1.152,0.047-2.484,1.197-2.977l2.441-1.039     c1.152-0.49,2.484,0.045,2.977,1.197c0.49,1.152-0.047,2.484-1.197,2.975l-2.441,1.041     C71.095,36.194,70.792,36.253,70.495,36.253z" fill="#434B56"/><path d="M15.021,23.091c-0.463,0-0.93-0.143-1.334-0.436l-2.943-2.146c-1.012-0.738-1.234-2.156-0.498-3.168     c0.738-1.012,2.156-1.236,3.17-0.498l2.943,2.146c1.012,0.738,1.234,2.156,0.498,3.168     C16.411,22.767,15.722,23.091,15.021,23.091z" fill="#434B56"/><path d="M45.503,15.841c-0.061,0-0.119-0.002-0.18-0.006c-1.248-0.098-2.182-1.189-2.084-2.438l0.219-2.822     c0.096-1.248,1.205-2.182,2.438-2.084c1.248,0.096,2.182,1.188,2.084,2.438l-0.219,2.82     C47.669,14.938,46.675,15.841,45.503,15.841z" fill="#434B56"/><path d="M31.735,13.021c-1.254,0-2.268-1.016-2.268-2.27V5.343c0-1.252,1.014-2.268,2.268-2.268     c1.252,0,2.268,1.016,2.268,2.268v5.408C34.003,12.005,32.987,13.021,31.735,13.021z" fill="#434B56"/><path d="M12.079,36.253H7.542c-1.254,0-2.268-1.016-2.268-2.268c0-1.254,1.014-2.27,2.268-2.27h4.537     c1.252,0,2.268,1.016,2.268,2.27C14.347,35.237,13.331,36.253,12.079,36.253z" fill="#434B56"/><path d="M65.308,13.021c-0.461,0-0.926-0.141-1.326-0.432c-1.016-0.734-1.244-2.15-0.51-3.166l2.334-3.227     c0.734-1.016,2.154-1.244,3.168-0.51s1.242,2.152,0.508,3.168l-2.334,3.227C66.704,12.694,66.011,13.021,65.308,13.021z" fill="#434B56"/><path d="M70.476,25.29c-0.789,0-1.555-0.41-1.973-1.145c-0.621-1.088-0.242-2.473,0.846-3.094l6.623-3.779     c1.088-0.619,2.475-0.24,3.094,0.848c0.621,1.088,0.242,2.473-0.846,3.094l-6.623,3.777C71.243,25.194,70.856,25.29,70.476,25.29     z" fill="#434B56"/><g><path d="M26.899,78.62v7.037h31.668c3.049,0,5.535-2.492,5.535-5.533V78.62" fill="#ADADAD"/><path d="M58.567,87.925H24.632V78.62h4.535v4.77h29.4c1.801,0,3.268-1.465,3.268-3.266V78.62h4.535v1.504      C66.37,84.427,62.87,87.925,58.567,87.925z" fill="#434B56"/></g><g><path d="M37.673,78.62h-8.916C14.839,72.757,4.669,59.796,2.714,44.28h85.572      c-1.953,15.516-12.127,28.477-26.043,34.34h-7.725" fill="#E4E4E6"/><path d="M62.702,80.888h-8.184v-4.535h7.26c12.391-5.385,21.332-16.625,23.854-29.805H5.368      C7.892,59.729,16.833,70.97,29.222,76.353h8.451v4.535h-9.375l-0.422-0.178C12.987,74.437,2.483,60.587,0.464,44.563      l-0.322-2.553h90.717l-0.322,2.553C88.519,60.585,78.015,74.437,63.124,80.71L62.702,80.888z" fill="#434B56"/></g><path d="M65.438,68.487c-0.811,0-1.594-0.436-2.002-1.199c-0.592-1.105-0.174-2.479,0.93-3.07     c4.475-2.393,7.752-6.578,8.988-11.482c0.307-1.215,1.545-1.951,2.754-1.645c1.215,0.307,1.951,1.541,1.645,2.754     c-1.549,6.141-5.648,11.379-11.248,14.373C66.165,68.399,65.8,68.487,65.438,68.487z" fill="#FFFFFF"/><path d="M59.946,72.062c-1.482,0-2.688-1.205-2.688-2.688s1.205-2.688,2.688-2.688     c1.484,0,2.689,1.205,2.689,2.688S61.431,72.062,59.946,72.062z" fill="#FFFFFF"/></g></g></g></svg>